<?xml version="1.0" encoding="UTF-8" standalone="no"?>
<!DOCTYPE svg PUBLIC "-//W3C//DTD SVG 1.1//EN" "http://www.w3.org/Graphics/SVG/1.1/DTD/svg11.dtd">
<svg width="100%" height="100%" viewBox="0 0 718 765" version="1.1" xmlns="http://www.w3.org/2000/svg" xmlns:xlink="http://www.w3.org/1999/xlink" xml:space="preserve" xmlns:serif="http://www.serif.com/" style="fill-rule:evenodd;clip-rule:evenodd;stroke-linejoin:round;stroke-miterlimit:2;">
    <path d="M607.3,233.3C645.9,255.6 677.2,230.3 677.3,176.8C677.3,123.3 646,61.8 607.4,39.5C568.8,17.2 537.5,42.5 537.4,96C537.4,107.8 538.9,119.9 541.7,131.9L399.4,185C386.8,160.7 369.5,140.2 350.5,129.2C311.9,106.9 280.6,132.2 280.5,185.7C280.5,239.2 311.8,300.7 350.4,323C368.7,333.6 385.4,333.4 397.9,324.7L537.4,537.8C537.4,539.1 537.3,540.3 537.3,541.6C537.3,595.1 568.6,656.6 607.2,678.9C645.8,701.2 677.1,675.9 677.2,622.4C677.2,568.9 645.9,507.4 607.3,485.1C581.9,470.5 559.7,476.4 547.4,497.3L416.3,297C419,288.3 420.4,278.1 420.4,266.5C420.4,255.9 419.2,245.1 416.9,234.3L560.2,180.8C572.6,203.7 589.2,222.8 607.3,233.3Z" style="fill:url(#_Linear1);fill-rule:nonzero;"/>
    <path d="M716.9,146.4C716.9,199.9 685.6,225.2 646.9,202.9C608.3,180.6 577,119.2 577,65.6C577,12.1 608.3,-13.2 647,9.1C685.6,31.4 716.9,92.9 716.9,146.4Z" style="fill:url(#_Linear2);fill-rule:nonzero;"/>
    <path d="M459.9,234.4C459.9,287.9 428.6,313.2 389.9,290.9C351.3,268.6 320,207.1 320,153.6C320,100.1 351.3,74.8 390,97.1C428.6,119.4 459.9,180.9 459.9,234.4Z" style="fill:url(#_Linear3);fill-rule:nonzero;"/>
    <path d="M717.9,592.4C717.9,645.9 686.6,671.2 647.9,648.9C609.3,626.6 578,565.1 578,511.6C578,458.1 609.3,432.8 648,455.1C686.6,477.4 717.9,538.9 717.9,592.4Z" style="fill:url(#_Linear4);fill-rule:nonzero;"/>
    <path d="M126,427L324.6,541.7L324.7,718.5L126.1,603.8L126,427Z" style="fill:url(#_Linear5);fill-rule:nonzero;"/>
    <path d="M126,427L225.4,590.4L324.7,541.6L126,427Z" style="fill:url(#_Linear6);fill-rule:nonzero;"/>
    <path d="M242.5,594.2C242.5,606.7 235,612.4 225.6,607C216.3,601.6 208.7,587.1 208.7,574.7C208.7,562.2 216.2,556.5 225.6,561.9C235,567.3 242.5,581.8 242.5,594.2Z" style="fill:rgb(255,93,15);fill-rule:nonzero;"/>
    <path d="M329.5,340.7L32,169.1L32.1,320.4L303.4,476.9L329.7,515.2L329.5,340.7Z" style="fill:url(#_Linear7);fill-rule:nonzero;"/>
    <path d="M0.3,227.7L0.3,186.6L112.6,251.4L112.6,292.5L0.3,227.7Z" style="fill:rgb(255,93,15);fill-rule:nonzero;"/>
    <path d="M253,333.4L187.8,295.8L187.8,309.1L253,346.7L253,333.4Z" style="fill:white;fill-opacity:0.15;fill-rule:nonzero;"/>
    <path d="M253.1,360L127.4,287.5L127.4,300.8L253.1,373.3L253.1,360Z" style="fill:white;fill-opacity:0.15;fill-rule:nonzero;"/>
    <path d="M253.1,386.6L100.8,298.8L100.8,312.1L253.1,399.9L253.1,386.6Z" style="fill:white;fill-opacity:0.15;fill-rule:nonzero;"/>
    <path d="M269.1,356.5C269.1,369 276.7,383.4 286,388.8C295.3,394.2 302.9,388.4 302.9,376C302.9,363.5 295.3,349.1 286,343.7C276.6,338.3 269.1,344.1 269.1,356.5Z" style="fill:rgb(255,93,15);fill-rule:nonzero;"/>
    <path d="M356.5,441.9L654,613.5L654.1,764.8L382.8,608.3L356.6,616.3L356.5,441.9Z" style="fill:url(#_Linear8);fill-rule:nonzero;"/>
    <path d="M567.5,639L567.5,597.9L679.8,662.7L679.8,703.8L567.5,639Z" style="fill:rgb(251,202,54);fill-rule:nonzero;"/>
    <path d="M433,522.8L498.2,560.4L498.2,573.7L433,536.1L433,522.8Z" style="fill:white;fill-opacity:0.15;fill-rule:nonzero;"/>
    <path d="M433,549.4L550.7,617.3L550.7,630.6L433,562.8L433,549.4Z" style="fill:white;fill-opacity:0.15;fill-rule:nonzero;"/>
    <path d="M433,576.1L585.3,663.9L585.3,677.2L433,589.4L433,576.1Z" style="fill:white;fill-opacity:0.15;fill-rule:nonzero;"/>
    <path d="M417,527.4C417,539.9 409.5,545.6 400.1,540.2C390.8,534.8 383.2,520.3 383.2,507.9C383.2,495.4 390.7,489.7 400.1,495.1C409.4,500.5 416.9,515 417,527.4Z" style="fill:rgb(251,202,54);fill-rule:nonzero;"/>
    <path d="M195.2,137.6L152.4,112.9L152.4,98.5L195.2,123.2C198.7,125.2 203.8,129.3 208.1,135.6C212.8,142.3 216.1,150.8 216.1,160C216.1,170.2 213.5,176 208.6,177.6C204,179.1 198.5,176.5 195.2,174.6L177.6,164.4L177.5,164.3C176,163.4 173.6,162.5 171.7,163.1C170.1,163.6 168.4,165.1 168.4,170.8C168.4,176.5 170.2,179.9 171.6,182C173.4,184.6 175.8,186.4 177.3,187.2L177.5,187.3L231.3,218.4L231.3,232.8L177.8,201.9C174.1,200 168.8,195.9 164.2,189.5C159.2,182.4 155.8,173.5 155.8,163.6C155.8,153.7 159.2,148.7 164.1,147.3C168.7,146 174,147.9 177.7,150.1L195.1,160.2C197.6,161.7 199.5,162.3 200.8,161.9C201.8,161.6 203.6,160.2 203.6,152.9C203.6,148.1 202.1,145 200.6,143C198.9,140.3 196.7,138.4 195.2,137.6Z" style="fill:white;fill-opacity:0.2;fill-rule:nonzero;"/>
    <path d="M160.3,109.8C160.3,122.7 152.7,128.8 143.4,123.5C134.1,118.1 126.5,103.3 126.5,90.3C126.5,77.4 134.1,71.3 143.4,76.6C152.7,82 160.3,96.9 160.3,109.8Z" style="fill:rgb(255,93,15);fill-rule:nonzero;"/>
    <path d="M253.3,237.8C253.3,250.7 245.7,256.8 236.4,251.5C227.1,246.1 219.5,231.3 219.5,218.3C219.5,205.4 227.1,199.3 236.4,204.6C245.7,210 253.3,224.9 253.3,237.8Z" style="fill:rgb(251,202,54);fill-rule:nonzero;"/>
    <path d="M338.1,724.8C285.2,656.7 323.5,632.2 338.1,672C352.7,649 391,717.8 338.1,724.8Z" style="fill:url(#_Linear9);fill-rule:nonzero;"/>
    <defs>
        <linearGradient id="_Linear1" x1="0" y1="0" x2="1" y2="0" gradientUnits="userSpaceOnUse" gradientTransform="matrix(-281.651,287.343,-287.343,-281.651,710.639,167.64)"><stop offset="0" style="stop-color:white;stop-opacity:0.4"/><stop offset="1" style="stop-color:white;stop-opacity:0"/></linearGradient>
        <linearGradient id="_Linear2" x1="0" y1="0" x2="1" y2="0" gradientUnits="userSpaceOnUse" gradientTransform="matrix(-281.652,287.343,-287.343,-281.652,681.962,70.286)"><stop offset="0" style="stop-color:white;stop-opacity:0.07"/><stop offset="1" style="stop-color:white;stop-opacity:0"/></linearGradient>
        <linearGradient id="_Linear3" x1="0" y1="0" x2="1" y2="0" gradientUnits="userSpaceOnUse" gradientTransform="matrix(-281.652,287.344,-287.344,-281.652,424.962,158.286)"><stop offset="0" style="stop-color:white;stop-opacity:0.07"/><stop offset="1" style="stop-color:white;stop-opacity:0"/></linearGradient>
        <linearGradient id="_Linear4" x1="0" y1="0" x2="1" y2="0" gradientUnits="userSpaceOnUse" gradientTransform="matrix(-281.652,287.343,-287.343,-281.652,682.962,516.286)"><stop offset="0" style="stop-color:white;stop-opacity:0.07"/><stop offset="1" style="stop-color:white;stop-opacity:0"/></linearGradient>
        <linearGradient id="_Linear5" x1="0" y1="0" x2="1" y2="0" gradientUnits="userSpaceOnUse" gradientTransform="matrix(-21.364,174.701,-174.701,-21.364,240.654,447.703)"><stop offset="0" style="stop-color:white;stop-opacity:0.2"/><stop offset="1" style="stop-color:white;stop-opacity:0"/></linearGradient>
        <linearGradient id="_Linear6" x1="0" y1="0" x2="1" y2="0" gradientUnits="userSpaceOnUse" gradientTransform="matrix(8.509,187.555,-187.555,8.509,223.081,434.923)"><stop offset="0" style="stop-color:white;stop-opacity:0.15"/><stop offset="1" style="stop-color:white;stop-opacity:0"/></linearGradient>
        <linearGradient id="_Linear7" x1="0" y1="0" x2="1" y2="0" gradientUnits="userSpaceOnUse" gradientTransform="matrix(-150.368,119.38,-119.38,-150.368,262.858,276.997)"><stop offset="0" style="stop-color:white;stop-opacity:0.3"/><stop offset="1" style="stop-color:white;stop-opacity:0"/></linearGradient>
        <linearGradient id="_Linear8" x1="0" y1="0" x2="1" y2="0" gradientUnits="userSpaceOnUse" gradientTransform="matrix(32.624,305.611,-305.611,32.624,487.501,448.154)"><stop offset="0" style="stop-color:white;stop-opacity:0.3"/><stop offset="1" style="stop-color:white;stop-opacity:0"/></linearGradient>
        <linearGradient id="_Linear9" x1="0" y1="0" x2="1" y2="0" gradientUnits="userSpaceOnUse" gradientTransform="matrix(-39.142,33.815,-33.815,-39.142,349.286,674.582)"><stop offset="0" style="stop-color:white;stop-opacity:0.2"/><stop offset="1" style="stop-color:white;stop-opacity:0"/></linearGradient>
    </defs>
</svg>
